<?xml version="1.0" encoding="utf-8"?>
<!-- Generator: Adobe Illustrator 19.2.0, SVG Export Plug-In . SVG Version: 6.00 Build 0)  -->
<svg version="1.1" xmlns="http://www.w3.org/2000/svg" xmlns:xlink="http://www.w3.org/1999/xlink" x="0px" y="0px"
	 viewBox="0 0 48 48" style="enable-background:new 0 0 48 48;" xml:space="preserve">
<style type="text/css">
	.st0{display:none;}
	.st1{display:inline;fill:none;}
	.st2{display:inline;}
	.st3{fill:none;stroke:#222222;stroke-miterlimit:10;}
	.st4{display:inline;fill:none;stroke:#000000;stroke-miterlimit:10;}
</style>
<g id="Base" class="st0">
	<rect class="st1" width="48" height="48"/>
</g>
<g id="grid">
	<polygon points="0,46 0,48 48,48 48,0 46,0 46,46 	"/>
</g>
<g id="Settings" class="st0">
	<g class="st2">
		<path class="st3" d="M34.5,24c0-1.6,1-2.9,2.5-3.8c-0.3-0.9-0.6-1.8-1.1-2.6c-1.7,0.4-3-0.2-4.2-1.4c-1.1-1.1-1.5-2.5-1.1-4.2
			c-0.8-0.4-1.7-0.8-2.6-1.1c-0.9,1.5-2.5,2.5-4.1,2.5c-1.6,0-3.2-1-4.1-2.5c-0.9,0.3-1.8,0.6-2.6,1.1c0.4,1.7,0.1,3-1.1,4.2
			c-1.1,1.1-2.5,1.8-4.2,1.4c-0.4,0.8-0.8,1.7-1.1,2.6c1.5,0.9,2.5,2.2,2.5,3.8s-1,3.2-2.5,4.1c0.3,0.9,0.6,1.8,1.1,2.6
			c1.7-0.4,3-0.1,4.2,1.1c1.2,1.1,1.5,2.5,1.1,4.2c0.8,0.4,1.7,0.8,2.6,1.1c0.9-1.5,2.5-2.5,4.1-2.5s3.2,1,4.1,2.5
			c0.9-0.3,1.8-0.6,2.6-1.1c-0.4-1.7-0.1-3,1.1-4.2c1.1-1.1,2.5-1.8,4.2-1.4c0.4-0.8,0.8-1.7,1.1-2.6C35.5,26.9,34.5,25.6,34.5,24z
			 M24,30.7c-3.7,0-6.7-3-6.7-6.7s3-6.7,6.7-6.7s6.7,3,6.7,6.7S27.7,30.7,24,30.7z"/>
	</g>
</g>
<g id="Type" class="st0">
	<g class="st2">
		<path d="M21.6,26.2h-4.3l-0.9,2.6H14l4.1-11.8h2.8l4.2,11.8h-2.6L21.6,26.2z M19,20.9l-1.1,3.4H21L19.9,21c-0.3-1-0.4-1.7-0.4-1.7
			h0C19.4,19.3,19.3,20,19,20.9z"/>
		<path d="M26.2,23c0.1-1.6,1.4-2.6,3.6-2.6c2.7,0,3.6,1.1,3.6,3.3v2.8c0,0.4,0.1,0.6,0.7,0.6v1.7h-0.8c-1.2,0-1.8-0.2-2-1.1h0
			c-0.5,0.8-1.3,1.2-2.5,1.2c-1.7,0-2.8-0.9-2.8-2.4c0-1,0.4-1.6,1.2-2.1c0.9-0.5,2.1-0.5,3.9-0.6v-0.4c0-0.9-0.4-1.4-1.2-1.4
			c-0.8,0-1.2,0.4-1.2,1.1H26.2z M31,25.4v-0.3c-1.3,0.1-1.9,0.2-2.3,0.4c-0.3,0.2-0.4,0.5-0.4,0.8c0,0.6,0.4,1,1.1,1
			C30.2,27.4,31,26.7,31,25.4z"/>
	</g>
</g>
<g id="Audio" class="st0">
	<g class="st2">
		<polygon points="22.9,30.8 22.9,17.2 18.6,21.1 14,21.1 14,26.9 18.6,26.9 		"/>
		<path d="M25.4,28.5c0.9-1.2,1.5-2.8,1.5-4.5s-0.5-3.2-1.5-4.5l-0.9,0.7c0.8,1.1,1.2,2.4,1.2,3.8c0,1.4-0.5,2.7-1.2,3.8L25.4,28.5z
			"/>
		<path d="M28.4,30.5c1.3-1.8,2.1-4.1,2.1-6.5s-0.8-4.7-2.1-6.5l-0.9,0.7c1.2,1.6,1.9,3.6,1.9,5.8s-0.7,4.2-1.9,5.8L28.4,30.5z"/>
		<path d="M30.3,16.1c1.6,2.2,2.6,4.9,2.6,7.9s-1,5.7-2.6,7.9l0.9,0.7C33,30.2,34,27.2,34,24s-1-6.2-2.8-8.6L30.3,16.1z"/>
	</g>
</g>
<g id="Table" class="st0">
	<rect x="12" y="16" class="st4" width="24" height="16"/>
	<line class="st4" x1="12" y1="23.5" x2="36" y2="23.5"/>
	<line class="st4" x1="12" y1="27.5" x2="36" y2="27.5"/>
	<line class="st4" x1="17.5" y1="20" x2="17.5" y2="32"/>
	<line class="st4" x1="23.5" y1="20" x2="23.5" y2="32"/>
	<line class="st4" x1="29.5" y1="20" x2="29.5" y2="32"/>
	<rect x="12" y="16" class="st2" width="24" height="4"/>
</g>
<g id="Image" class="st0">
	<g class="st2">
		<path d="M29,22.6c1.2,0,2.1-1,2.1-2.1c0-1.2-1-2.1-2.1-2.1s-2.1,1-2.1,2.1C26.9,21.6,27.8,22.6,29,22.6z"/>
		<path d="M32.8,15.4H15.2c-0.7,0-1.2,0.6-1.2,1.3v14.6c0,0.7,0.6,1.3,1.2,1.3h17.5c0.7,0,1.2-0.6,1.2-1.3V16.7
			C34,16,33.4,15.4,32.8,15.4z M28.1,24.3C28,24.1,27.8,24,27.6,24c-0.2,0-0.4,0.1-0.6,0.3l-0.8,0.7c-0.2,0.1-0.3,0.2-0.5,0.2
			c-0.2,0-0.4-0.1-0.5-0.2c0,0-0.1-0.1-0.2-0.2l-2.4-2.6c-0.2-0.2-0.4-0.3-0.7-0.3s-0.6,0.1-0.8,0.3L15.4,29V17.4
			c0-0.3,0.3-0.5,0.6-0.5h16c0.3,0,0.6,0.2,0.6,0.5l0,11.6L28.1,24.3z"/>
	</g>
</g>
<g id="Link" class="st0">
	<g class="st2">
		<path d="M24,21.5L24,21.5L24,21.5C24,21.5,24,21.5,24,21.5z"/>
		<path d="M29.9,19h-2.5c0,0,1.4,0.9,1.6,2.5h0.9h0c0.9,0,1.6,0.7,1.6,1.6v1.7c0,0.9-0.7,1.7-1.6,1.7H24c-0.9,0-1.7-0.8-1.7-1.7
			v-1.6h-2.5v1.6c0,0.6,0.1,1.2,0.4,1.7C20.8,28,22.3,29,24,29h5.8c2.3,0,4.1-1.9,4.1-4.2v-1.7C34,20.8,32.2,19,29.9,19z"/>
		<path d="M27.8,21.5C27.2,20,25.7,19,24,19h-5.8c-2.3,0-4.2,1.8-4.2,4.1v1.7c0,2.3,1.9,4.2,4.2,4.2h2.5c0,0-1.3-0.9-1.7-2.5h-0.8
			c-0.9,0-1.7-0.8-1.7-1.7v-1.7c0-0.9,0.8-1.6,1.7-1.6H24h0c0.9,0,1.6,0.7,1.6,1.6v1.7c0,0,0,0,0,0h2.5c0,0,0,0,0,0v-1.7
			C28.2,22.6,28,22,27.8,21.5z"/>
	</g>
</g>
<g id="Layer_7" class="st0">
	<g class="st2">
		<path d="M20.1,30.1c-0.3,0-0.5-0.1-0.8-0.3l-5-5c-0.4-0.4-0.4-1.1,0-1.5l5-5c0.4-0.4,1.1-0.4,1.5,0c0.4,0.4,0.4,1.1,0,1.5L16.6,24
			l4.2,4.2c0.4,0.4,0.4,1.1,0,1.5C20.6,30,20.3,30.1,20.1,30.1z"/>
		<path d="M27.9,30.1c0.3,0,0.5-0.1,0.8-0.3l5-5c0.4-0.4,0.4-1.1,0-1.5l-5-5c-0.4-0.4-1.1-0.4-1.5,0c-0.4,0.4-0.4,1.1,0,1.5l4.2,4.2
			l-4.2,4.2c-0.4,0.4-0.4,1.1,0,1.5C27.4,30,27.7,30.1,27.9,30.1z"/>
	</g>
</g>
<g id="Sharing" class="st0">
</g>
</svg>
