<svg id="base" xmlns="http://www.w3.org/2000/svg" viewBox="0 0 81.41 81.41">
	<defs>
		<style>
			.cls-1{fill:gray;}
			.cls-2,.cls-3{fill:#fff;}
			.cls-2{opacity:0.3;}
			.cls-3{opacity:0.2;}
			.cls-4,.cls-5,.cls-7,.cls-8{fill:none;stroke-miterlimit:10;}
			.cls-4{stroke:red;}
			.cls-5{stroke:#f0f;}
			.cls-6{fill:red;}
			.cls-7{stroke:lime;}
			.cls-8{stroke:blue;}
			.cls-9{fill:blue;}
		</style>
	</defs>
	<rect id="canvas" class="i__base cls-1" x="16.71" y="16.71" width="48" height="48"/>
	<rect id="base__guide2" class="i__base cls-2" x="16.71" y="16.71" width="24" height="48"/>
	<rect id="base__guide1" class="i__base cls-3" x="16.71" y="16.71" width="48" height="24"/>
	<circle id="ring__24" class="i__stroke i__ring cls-4" cx="40.71" cy="40.71" r="12"/>
	<circle id="ring__18" class="i__stroke i__ring cls-4" cx="40.71" cy="40.71" r="9"/>
	<line class="cls-5" x1="28.71" y1="13.21" x2="52.71" y2="13.21"/>
	<line class="cls-5" x1="28.71" y1="15.21" x2="52.71" y2="15.21"/>
	<line class="cls-5" x1="28.71" y1="68.21" x2="52.71" y2="68.21"/>
	<line id="line__e2" class="cls-5" x1="13.21" y1="28.71" x2="13.21" y2="52.71"/>
	<line id="line__e" class="cls-5" x1="15.21" y1="28.71" x2="15.21" y2="52.71"/>
	<line id="line__w" class="cls-5" x1="68.21" y1="28.71" x2="68.21" y2="52.71"/>
	<circle id="dot__m" class="cls-6" cx="40.71" cy="40.71" r="2"/>
	<circle id="dot__ne" class="cls-6" cx="72.71" cy="8.71" r="2"/>
	<circle id="dot__e" class="cls-6" cx="72.71" cy="40.71" r="2"/>
	<circle id="dot_se" class="cls-6" cx="72.71" cy="72.71" r="2"/>
	<circle id="dot__s" class="cls-6" cx="40.71" cy="72.71" r="2"/>
	<circle id="dot__w" class="cls-6" cx="8.71" cy="40.71" r="2"/>
	<circle id="dot__n" class="cls-6" cx="40.71" cy="8.71" r="2"/>
	<circle id="dot__sw" class="cls-6" cx="8.71" cy="72.71" r="2"/>
	<circle id="dot__nw" class="cls-6" cx="8.71" cy="8.71" r="2"/>
	<line id="line__se" class="cls-5" x1="66.71" y1="66.71" x2="78.71" y2="78.71"/>
	<line id="line__ne" class="cls-5" x1="66.71" y1="14.71" x2="78.71" y2="2.71"/>
	<line id="line__nw" class="cls-5" x1="14.71" y1="14.71" x2="2.71" y2="2.71"/>
	<line id="line__sw" class="cls-5" x1="14.71" y1="66.71" x2="2.71" y2="78.71"/>
	<polyline id="corner__ne" class="cls-7" points="56.71 12.71 68.71 12.71 68.71 24.71"/>
	<polyline id="corner__sw" class="cls-7" points="24.71 68.71 12.71 68.71 12.71 56.71"/>
	<polyline id="corner__se" class="cls-7" points="68.71 56.71 68.71 68.71 56.71 68.71"/>
	<polyline id="corner__nw" class="cls-7" points="12.71 24.71 12.71 12.71 24.71 12.71"/>
	<polyline id="corner__n" class="cls-7" points="32.22 9.19 40.71 0.71 49.19 9.19"/>
	<polyline id="corner__s" class="cls-7" points="49.19 72.22 40.71 80.71 32.22 72.22"/>
	<polyline id="corner__e" class="cls-7" points="72.22 32.22 80.71 40.71 72.22 49.19"/>
	<polyline id="corner__w" class="cls-7" points="9.19 49.19 0.71 40.71 9.19 32.22"/>
	<rect id="aside__frame" class="cls-8" x="28.71" y="32.71" width="24" height="16"/>
	<line id="aside__divider" class="cls-8" x1="36.71" y1="32.71" x2="36.71" y2="48.71"/>
	<path class="cls-8" d="M34.5,24A4.44,4.44,0,0,1,37,20.22a13.78,13.78,0,0,0-1.07-2.59,4.19,4.19,0,0,1-4.2-1.37,4.05,4.05,0,0,1-1.06-4.2A13.59,13.59,0,0,0,28.09,11,4.89,4.89,0,0,1,24,13.5,4.9,4.9,0,0,1,19.91,11a13.59,13.59,0,0,0-2.59,1.07,4.06,4.06,0,0,1-1.06,4.2,4.19,4.19,0,0,1-4.19,1.37A13.19,13.19,0,0,0,11,20.22,4.43,4.43,0,0,1,13.51,24,4.91,4.91,0,0,1,11,28.09a13.59,13.59,0,0,0,1.07,2.59,4,4,0,0,1,4.19,1.06,4,4,0,0,1,1.06,4.2A13.78,13.78,0,0,0,19.9,37,4.9,4.9,0,0,1,24,34.5,4.9,4.9,0,0,1,28.08,37a13.59,13.59,0,0,0,2.59-1.07,4.06,4.06,0,0,1,1.06-4.2,4.19,4.19,0,0,1,4.2-1.37A14,14,0,0,0,37,27.78,4.43,4.43,0,0,1,34.5,24Z" transform="translate(16.71 16.71)"/>
	<circle id="settings__" class="cls-8" cx="40.71" cy="40.71" r="6.66"/>
	<circle id="ring__18-2" data-name="ring__18" class="cls-8" cx="39.71" cy="39.71" r="9"/>
	<line class="cls-8" x1="52.71" y1="52.71" x2="46.07" y2="46.07"/>
	<polygon class="cls-8" points="30.44 40.71 47.76 30.71 47.76 50.71 30.44 40.71"/>
	<circle class="cls-8" cx="10.71" cy="40.71" r="4"/>
	<circle class="cls-8" cx="58.21" cy="11.21" r="3.5"/>
	<circle class="cls-8" cx="58.71" cy="70.71" r="4"/>
	<line id="grid__x--m" class="cls-8" x1="28.71" y1="40.71" x2="52.71" y2="40.71"/>
	<line id="grid__x--s" class="cls-8" x1="28.71" y1="48.71" x2="52.71" y2="48.71"/>
	<line id="grid__x--n" class="cls-8" x1="28.71" y1="32.71" x2="52.71" y2="32.71"/>
	<line id="grid__y--w" class="cls-8" x1="32.71" y1="28.71" x2="32.71" y2="52.71"/>
	<line id="grid__y--e" class="cls-8" x1="48.71" y1="28.71" x2="48.71" y2="52.71"/>
	<line id="grid__y--m" class="cls-8" x1="40.71" y1="28.71" x2="40.71" y2="52.71"/>
	<path id="code__close" class="cls-9" d="M20.07,30.07a1.07,1.07,0,0,1-.76-0.31l-5-5a1.07,1.07,0,0,1,0-1.52l5-5a1.07,1.07,0,0,1,1.52,1.52L16.59,24l4.24,4.24A1.07,1.07,0,0,1,20.07,30.07Z" transform="translate(16.71 16.71)"/>
	<path id="code__open" class="cls-9" d="M27.93,30.07a1.07,1.07,0,0,0,.76-0.31l5-5a1.07,1.07,0,0,0,0-1.52l-5-5a1.07,1.07,0,0,0-1.52,1.52L31.41,24l-4.24,4.24A1.07,1.07,0,0,0,27.93,30.07Z" transform="translate(16.71 16.71)"/>
	<path id="link__down" class="cls-9" d="M29.86,19H29v2.5h0.88a1.63,1.63,0,0,1,1.64,1.64v1.67a1.67,1.67,0,0,1-1.64,1.69H24a1.72,1.72,0,0,1-1.69-1.69V23.17h-2.5v1.64A4.2,4.2,0,0,0,24,29h5.83A4.17,4.17,0,0,0,34,24.81V23.14A4.12,4.12,0,0,0,29.86,19Z" transform="translate(16.71 16.71)"/>
	<path id="link__up" class="cls-9" d="M27.83,21.5A4.12,4.12,0,0,0,24,19H18.19A4.17,4.17,0,0,0,14,23.14v1.67A4.21,4.21,0,0,0,18.19,29H19V26.5h-0.8a1.72,1.72,0,0,1-1.69-1.69V23.14a1.67,1.67,0,0,1,1.69-1.64H24a1.63,1.63,0,0,1,1.64,1.64v1.69h2.5V23.14A4.18,4.18,0,0,0,27.83,21.5Z" transform="translate(16.71 16.71)"/>
	<rect id="image__frame" class="cls-8" x="28.71" y="32.63" width="24" height="16"/>
	<path id="image__sun" class="cls-9" d="M31,23.93a3,3,0,1,0-3-3A3,3,0,0,0,31,23.93Z" transform="translate(16.71 16.71)"/>
	<path id="image__vista" class="cls-9" d="M36,32.07L29.81,25.4A1.07,1.07,0,0,0,29,25a1.23,1.23,0,0,0-.8.36l-1.17,1a1.17,1.17,0,0,1-.72.29,1,1,0,0,1-.69-0.26l-0.27-.26L22,22.5A1.38,1.38,0,0,0,21,22a1.42,1.42,0,0,0-1.05.49L12,32.06" transform="translate(16.71 16.71)"/>
	<path id="text__upper" class="cls-9" d="M21.6,26.22H17.28l-0.86,2.62H14l4.11-11.77h2.83l4.17,11.77H22.46ZM19,20.94l-1.09,3.43H21L19.91,21a15.59,15.59,0,0,1-.45-1.72h0A17.63,17.63,0,0,1,19,20.94Z" transform="translate(16.71 16.71)"/>
	<path id="text__lower" class="cls-9" d="M26.2,23c0.09-1.65,1.4-2.63,3.56-2.63,2.66,0,3.59,1.09,3.59,3.29v2.85c0,0.45.14,0.62,0.66,0.62v1.69H33.18c-1.19,0-1.75-.23-2-1.14h0a2.81,2.81,0,0,1-2.49,1.22c-1.72,0-2.8-.91-2.8-2.45a2.18,2.18,0,0,1,1.25-2.06A9.8,9.8,0,0,1,31,23.81V23.36A1.15,1.15,0,0,0,29.75,22,1.07,1.07,0,0,0,28.54,23H26.2ZM31,25.36V25.1a5,5,0,0,0-2.32.45,1,1,0,0,0-.4.83,1,1,0,0,0,1.09,1A1.75,1.75,0,0,0,31,25.36Z" transform="translate(16.71 16.71)"/>
	<path id="audio__mic" class="cls-9" d="M24,29.22a4.36,4.36,0,0,0,4.23-4.47V16.47A4.36,4.36,0,0,0,24,12a4.36,4.36,0,0,0-4.23,4.47v8.28A4.36,4.36,0,0,0,24,29.22Z" transform="translate(16.71 16.71)"/>
	<path id="audio__stand" class="cls-9" d="M29.95,20.57v4.27a5.89,5.89,0,0,1-11.79,0V20.57h-1v4.27a6.9,6.9,0,0,0,6.43,6.83V35H19.66v1h8.63V35h-3.7V31.67a6.8,6.8,0,0,0,6.27-6.83V20.57H29.95Z" transform="translate(16.71 16.71)"/></svg>