<svg id="Base" xmlns="http://www.w3.org/2000/svg" viewBox="0 0 48 48"><defs><style>.cls-1{fill:none;}</style></defs><title>icn__master</title><rect class="cls-1" width="48" height="48"/><path d="M21.6,26.22H17.28l-0.86,2.62H14l4.11-11.77h2.83l4.17,11.77H22.46ZM19,20.94l-1.09,3.43H21L19.91,21a15.59,15.59,0,0,1-.45-1.72h0A17.63,17.63,0,0,1,19,20.94Z"/><path d="M26.2,23c0.09-1.65,1.4-2.63,3.56-2.63,2.66,0,3.59,1.09,3.59,3.29v2.85c0,0.45.14,0.62,0.66,0.62v1.69H33.18c-1.19,0-1.75-.23-2-1.14h0a2.81,2.81,0,0,1-2.49,1.22c-1.72,0-2.8-.91-2.8-2.45a2.18,2.18,0,0,1,1.25-2.06A9.8,9.8,0,0,1,31,23.81V23.36A1.15,1.15,0,0,0,29.75,22,1.07,1.07,0,0,0,28.54,23H26.2ZM31,25.36V25.1a5,5,0,0,0-2.32.45,1,1,0,0,0-.4.83,1,1,0,0,0,1.09,1A1.75,1.75,0,0,0,31,25.36Z"/></svg>