<svg id="Base" xmlns="http://www.w3.org/2000/svg" viewBox="0 0 48 48"><defs><style>.cls-1{fill:none;}</style></defs><title>icn__master</title><rect class="cls-1" width="48" height="48"/><polygon points="22.88 30.78 22.88 17.23 18.65 21.14 14 21.14 14 26.86 18.65 26.86 22.88 30.78"/><path d="M25.39,28.45a7.5,7.5,0,0,0,0-8.9l-0.91.68a6.33,6.33,0,0,1,0,7.53Z"/><path d="M28.36,30.5a10.94,10.94,0,0,0,0-13l-0.91.68a9.78,9.78,0,0,1,0,11.64Z"/><path d="M30.28,16.12a13.32,13.32,0,0,1,0,15.77l0.92,0.69a14.5,14.5,0,0,0,0-17.14Z"/></svg>