<svg id="Base" xmlns="http://www.w3.org/2000/svg" viewBox="0 0 48 48"><defs><style>.cls-1{fill:none;}</style></defs><title>icn__master</title><rect class="cls-1" width="48" height="48"/><path d="M20.07,30.07a1.07,1.07,0,0,1-.76-0.31l-5-5a1.07,1.07,0,0,1,0-1.52l5-5a1.07,1.07,0,0,1,1.52,1.52L16.59,24l4.24,4.24A1.07,1.07,0,0,1,20.07,30.07Z"/><path d="M27.93,30.07a1.07,1.07,0,0,0,.76-0.31l5-5a1.07,1.07,0,0,0,0-1.52l-5-5a1.07,1.07,0,0,0-1.52,1.52L31.41,24l-4.24,4.24A1.07,1.07,0,0,0,27.93,30.07Z"/></svg>