<svg id="Base" xmlns="http://www.w3.org/2000/svg" viewBox="0 0 48 48"><defs><style>.cls-1{fill:none;}</style></defs><title>icn__master</title><rect class="cls-1" width="48" height="48"/><path d="M24,21.5h0Z"/><path d="M29.86,19H27.33A4.13,4.13,0,0,1,29,21.5h0.88a1.63,1.63,0,0,1,1.64,1.64v1.67a1.67,1.67,0,0,1-1.64,1.69H24a1.72,1.72,0,0,1-1.69-1.69V23.17h-2.5v1.64A4.2,4.2,0,0,0,24,29h5.83A4.17,4.17,0,0,0,34,24.81V23.14A4.12,4.12,0,0,0,29.86,19Z"/><path d="M27.83,21.5A4.12,4.12,0,0,0,24,19H18.19A4.17,4.17,0,0,0,14,23.14v1.67A4.21,4.21,0,0,0,18.19,29h2.47A4.28,4.28,0,0,1,19,26.5h-0.8a1.72,1.72,0,0,1-1.69-1.69V23.14a1.67,1.67,0,0,1,1.69-1.64H24a1.63,1.63,0,0,1,1.64,1.64v1.69h2.5V23.14A4.18,4.18,0,0,0,27.83,21.5Z"/></svg>