<svg id="Base" xmlns="http://www.w3.org/2000/svg" viewBox="0 0 48 48"><defs><style>.cls-1{fill:none;}</style></defs><title>icn__master</title><rect class="cls-1" width="48" height="48"/><path d="M29,22.57a2.14,2.14,0,1,0-2.14-2.14A2.14,2.14,0,0,0,29,22.57Z"/><path d="M32.75,15.43H15.25A1.25,1.25,0,0,0,14,16.69V31.31a1.25,1.25,0,0,0,1.25,1.26h17.5A1.25,1.25,0,0,0,34,31.31V16.69A1.25,1.25,0,0,0,32.75,15.43Zm-4.6,8.83A0.77,0.77,0,0,0,27.58,24a0.88,0.88,0,0,0-.57.25l-0.83.71a0.84,0.84,0,0,1-.51.21A0.74,0.74,0,0,1,25.17,25L25,24.78l-2.4-2.6a1,1,0,0,0-.75-0.33,1,1,0,0,0-.75.35L15.43,29V17.38A0.59,0.59,0,0,1,16,16.86H32a0.57,0.57,0,0,1,.58.54V29Z"/></svg>